<svg width="70" height="90" viewBox="0 0 70 90" fill="none" xmlns="http://www.w3.org/2000/svg">
<path d="M50.8136 16.1591L62.0455 30.6818C72.6409 44.2227 72.6409 66.2318 62.0455 79.7727C51.45 93.3136 34.3955 93.3955 23.8636 79.7727L4.77273 55.2273C1.5909 51.2591 1.5909 44.7545 4.77273 40.7455C5.0909 40.2545 5.50455 39.8045 5.95 39.4364L4.77273 37.8409C1.5909 33.8727 1.5909 27.3682 4.77273 23.3591C5.21818 22.7045 5.82272 22.1318 6.36364 21.6818C5.15454 17.9182 5.69546 13.4182 8.08182 10.35C10.85 6.79091 15.1455 6.42273 18.2636 9.20455C18.9111 7.92237 19.7725 6.84163 20.7852 6.04078C21.798 5.23993 22.9368 4.73907 24.1189 4.57455C25.301 4.41004 26.4967 4.58599 27.6193 5.08965C28.7419 5.5933 29.7632 6.41202 30.6091 7.48636L38.5955 17.7545C38.8818 17.1818 39.2318 16.65 39.6136 16.1591C41.1152 14.2896 43.1234 13.2443 45.2136 13.2443C47.3038 13.2443 49.3121 14.2896 50.8136 16.1591ZM46.3273 21.9682C45.6909 21.15 44.7045 21.15 44.0682 21.9682C43.4318 22.7864 43.4318 24.0545 44.0682 24.8727L54.1864 37.8818C52.3988 40.183 51.3948 43.3023 51.3948 46.5545C51.3948 49.8068 52.3988 52.9261 54.1864 55.2273L49.7 60.9955C47.5117 58.1822 46.009 54.6094 45.376 50.7148C44.7431 46.8201 45.0073 42.7727 46.1364 39.0682L26.0909 13.2955C25.4545 12.4773 24.4682 12.4773 23.8636 13.2955C23.2591 14.1136 23.1955 15.3818 23.8636 16.2L38.4682 35.0182L33.9818 40.7864L14.8591 16.2C14.2227 15.3818 13.2364 15.3818 12.6 16.2C11.9636 17.0182 11.9636 18.2864 12.6 19.1045L31.7227 43.6909L27.2364 49.4591L11.4864 29.2091C10.85 28.3909 9.86363 28.3909 9.22727 29.2091C8.59091 30.0273 8.59091 31.2955 9.22727 32.1136L27.2364 55.2273L22.75 61.0364L11.4864 46.5545C10.85 45.7364 9.86363 45.7364 9.22727 46.5545C8.59091 47.3727 8.59091 48.6409 9.22727 49.4591L28.3182 74.0455C36.4 84.4364 49.4773 84.4364 57.5591 74.0455C65.6409 63.6545 65.6409 46.8409 57.5591 36.45L46.3273 21.9682ZM0 65.4545C0 78.9955 8.55909 90 19.0909 90V83.8636C11.1364 83.8636 4.77273 75.6818 4.77273 65.4545H0ZM70 24.5455C70 11.0045 61.4409 0 50.9091 0V6.13636C58.8636 6.13636 65.2273 14.3182 65.2273 24.5455H70Z" fill="white"/>
</svg>
